# xmcd
#
# Track frame offsets: 
#        150
#        12269
#        29280
#        43167
#        62124
#        74135
#        87715
#        100977
#        116044
#
# Disc length: 1726 seconds
#
# Revision: 0
# Processed by: cddbd v1.5.2PL0 Copyright (c) Steve Scherf et al.
# Submitted via: ExactAudioCopy v0.99pb4
#
DISCID=8406bc09
DTITLE=Becky Hobbs - All Keyed Up
DYEAR=1989
DGENRE=Honky Tonk
TTITLE0=They Always Look Better When They're Leavin'
TTITLE1=Mama Was a Working Man
TTITLE2=Do You Feel the Same Way Too?
TTITLE3=She Broke Her Promise
TTITLE4=All Keyed Up
TTITLE5=A Woman Needs
TTITLE6=Jones On the Jukebox
TTITLE7=Cowgirl's Heart
TTITLE8=Are There Any More Like You (Where You Came From)
EXTD=
EXTT0=
EXTT1=
EXTT2=
EXTT3=
EXTT4=
EXTT5=
EXTT6=
EXTT7=
EXTT8=
PLAYORDER=
